<?xml version="1.0" standalone="no"?>
<!DOCTYPE svg PUBLIC "-//W3C//DTD SVG 20010904//EN"
 "http://www.w3.org/TR/2001/REC-SVG-20010904/DTD/svg10.dtd">
<svg version="1.0" xmlns="http://www.w3.org/2000/svg"
 width="500.000000pt" height="500.000000pt" viewBox="0 0 500.000000 500.000000"
 preserveAspectRatio="xMidYMid meet">
<metadata>
Created by potrace 1.14, written by Peter Selinger 2001-2017
</metadata>
<g transform="translate(0.000000,500.000000) scale(0.100000,-0.100000)"
fill="#000000" stroke="none">
<path d="M2600 4061 c0 -20 -73 -130 -88 -135 -10 -3 -38 -8 -65 -10 -220 -23
-472 -127 -666 -277 -25 -19 -51 -38 -58 -42 -7 -4 -49 2 -94 13 -45 12 -83
19 -86 17 -2 -3 6 -43 19 -89 21 -80 21 -86 5 -102 -37 -37 -201 -287 -196
-299 1 -1 -5 -18 -13 -37 -8 -19 -20 -52 -27 -72 -11 -33 -17 -38 -42 -38 -25
0 -29 3 -24 23 3 12 7 40 10 62 3 22 8 58 11 80 3 21 8 43 11 48 6 10 -67 4
-84 -6 -5 -3 -20 -8 -34 -11 -13 -2 -53 -14 -89 -25 -36 -11 -75 -22 -85 -24
-11 -2 -27 -7 -35 -10 -8 -3 -42 -13 -75 -22 -33 -9 -67 -18 -75 -20 -64 -18
-137 -38 -145 -39 -5 -1 -14 -4 -20 -7 -5 -4 -23 -9 -40 -13 -16 -4 -47 -12
-68 -17 l-39 -10 6 -57 c3 -31 8 -68 11 -82 6 -35 23 -139 28 -175 3 -16 12
-75 21 -130 9 -55 19 -113 22 -130 2 -16 6 -41 9 -55 4 -23 11 -70 19 -125 14
-88 18 -111 25 -118 4 -4 154 -8 334 -8 240 0 328 -3 335 -12 5 -7 15 -30 22
-52 29 -90 131 -269 207 -362 36 -44 39 -70 13 -139 -7 -16 -13 -41 -15 -56
-3 -24 -1 -26 18 -19 12 5 27 9 32 10 6 1 28 6 50 12 60 17 80 14 112 -15 98
-93 311 -201 493 -251 3 -1 12 -4 20 -8 21 -8 154 -33 225 -42 11 -1 23 -3 26
-4 4 0 26 -35 49 -76 24 -41 47 -72 51 -69 4 2 25 36 46 74 20 39 42 70 48 71
5 0 19 2 30 5 11 2 34 6 50 8 81 12 113 18 150 28 22 7 42 12 45 13 3 0 39 11
80 25 123 39 299 137 413 228 l38 30 84 -22 c98 -26 95 -30 65 75 -20 73 -18
90 14 122 59 59 226 356 226 402 0 8 5 17 10 20 14 8 52 -4 45 -15 -3 -4 -7
-28 -10 -51 -3 -24 -8 -62 -11 -84 -10 -70 -8 -79 14 -70 9 4 27 9 40 11 13 3
42 11 65 18 38 13 396 115 421 121 6 1 18 4 26 8 8 3 44 13 80 22 125 32 138
40 131 78 -1 4 -6 41 -12 82 -5 40 -12 84 -15 97 -3 13 -7 39 -10 58 -2 19 -6
46 -8 60 -2 14 -9 54 -16 90 -6 36 -13 81 -15 100 -3 19 -7 46 -10 60 -3 14
-7 41 -10 60 -4 31 -18 122 -29 190 -3 14 -5 28 -5 31 -1 3 -145 5 -321 5
-176 -1 -328 2 -338 5 -9 4 -23 24 -31 45 -41 115 -158 316 -225 389 -26 28
-26 32 -6 105 7 25 13 50 14 57 1 7 5 16 9 19 4 4 7 11 7 16 0 10 -28 6 -95
-12 -84 -22 -84 -22 -138 20 -29 22 -57 44 -64 50 -7 5 -15 10 -17 10 -3 0
-31 16 -63 37 -144 92 -367 172 -528 189 -33 3 -64 7 -70 7 -13 2 -40 40 -71
100 -21 41 -54 64 -54 38z m225 -235 c17 -4 50 -12 75 -17 254 -55 522 -219
693 -424 86 -103 112 -142 170 -255 53 -103 62 -130 47 -140 -27 -16 -48 4
-85 83 -51 109 -91 168 -110 161 -19 -8 -19 -19 -1 -37 22 -22 96 -172 96
-195 0 -14 -5 -19 -17 -17 -10 2 -21 4 -24 4 -3 1 -14 20 -25 44 -24 55 -85
157 -93 157 -3 0 -12 -4 -19 -8 -10 -7 -9 -14 6 -33 30 -40 84 -148 78 -158
-5 -7 -66 -6 -71 1 -1 2 -18 33 -39 71 -35 64 -57 80 -72 56 -3 -6 -2 -14 3
-18 14 -9 65 -102 60 -108 -3 -2 -17 -6 -31 -7 -23 -3 -34 7 -77 72 -28 42
-56 81 -63 87 -6 7 -29 32 -52 56 -23 24 -48 49 -56 54 -8 6 -37 27 -64 47
-100 77 -271 145 -404 163 -69 9 -73 12 -103 67 l-29 51 -27 -47 c-37 -63 -38
-63 -106 -71 -64 -6 -104 -14 -120 -24 -5 -3 -12 -6 -15 -6 -19 -2 -95 -32
-144 -57 -143 -71 -270 -183 -361 -318 -50 -73 -89 -98 -101 -66 -5 13 10 54
25 66 14 12 31 52 26 60 -9 15 -35 12 -35 -4 0 -8 -4 -16 -9 -18 -5 -1 -20
-27 -35 -55 -14 -29 -31 -53 -36 -54 -6 -1 -21 -1 -35 -1 -14 0 -27 0 -30 1
-7 1 51 117 76 153 23 32 23 34 4 42 -16 6 -63 -62 -103 -149 -19 -40 -28 -50
-48 -50 -13 0 -24 6 -24 13 0 19 39 104 58 125 8 9 12 17 9 17 -4 0 7 19 22
43 26 37 27 43 14 51 -18 10 -32 -5 -65 -69 -11 -22 -26 -43 -32 -47 -6 -4 -7
-8 -2 -8 5 0 3 -7 -4 -15 -7 -8 -9 -15 -4 -15 5 0 4 -4 -1 -8 -12 -8 -39 -64
-37 -74 1 -5 -4 -8 -11 -9 -6 0 -20 -2 -29 -4 -24 -4 -30 8 -19 37 5 12 9 26
10 31 0 4 13 29 27 55 15 26 32 56 38 67 83 154 257 345 396 436 121 79 261
151 318 164 9 2 49 13 88 24 39 11 87 22 108 24 20 2 39 6 41 9 7 7 346 1 380
-6z m-1640 -758 c-1 -13 -5 -36 -8 -53 l-7 -30 -165 1 c-91 0 -167 3 -170 6
-5 4 87 34 135 43 8 2 15 4 15 5 0 4 191 56 196 54 3 -2 5 -14 4 -26z m3335
-193 c5 -16 12 -47 15 -67 3 -21 7 -55 10 -75 3 -21 9 -63 15 -93 15 -91 22
-133 26 -165 2 -16 6 -41 9 -55 13 -72 25 -149 28 -180 l2 -35 -1948 0 c-1072
0 -1952 2 -1956 5 -7 4 -24 92 -36 185 -2 17 -6 44 -9 60 -3 17 -12 75 -21
130 -9 55 -17 111 -20 125 -2 14 -6 43 -10 65 -10 69 -16 99 -20 103 -25 26
83 27 1961 27 l1944 0 10 -30z m-3019 -822 c18 -38 32 -71 31 -75 -1 -5 1 -8
6 -8 4 0 13 -14 21 -32 20 -44 51 -77 67 -71 13 5 8 33 -7 43 -8 6 -110 199
-106 201 1 1 14 3 29 4 23 3 29 -3 53 -53 41 -85 85 -152 101 -152 22 0 18 13
-37 115 l-51 95 41 0 c39 0 41 -2 66 -52 34 -68 61 -100 80 -96 12 2 8 15 -20
61 -40 67 -44 87 -14 87 29 0 59 -18 59 -35 0 -8 4 -15 9 -15 5 0 13 -9 16
-21 15 -47 130 -165 261 -268 24 -19 201 -102 228 -107 16 -3 37 -9 47 -15 10
-5 22 -9 26 -8 4 1 10 0 13 -1 9 -3 43 -9 88 -14 51 -5 43 1 75 -56 13 -24 29
-46 34 -47 5 -2 18 15 28 37 22 48 36 62 72 65 64 7 201 39 231 55 10 4 43 20
74 35 138 64 277 186 365 321 44 67 51 74 81 74 30 0 33 -2 26 -22 -4 -13 -9
-25 -13 -28 -3 -3 -12 -15 -18 -27 -7 -13 -19 -32 -25 -43 -11 -17 -10 -22 2
-30 10 -6 17 -4 24 8 5 9 14 20 20 24 7 5 7 8 1 8 -5 0 -5 4 2 8 6 4 22 27 35
52 21 41 27 45 61 46 39 1 49 -14 22 -36 -8 -7 -15 -18 -15 -24 0 -7 -16 -38
-35 -70 -34 -57 -37 -76 -12 -76 11 0 85 114 85 130 0 3 8 21 19 40 20 35 48
50 63 33 8 -7 -42 -131 -58 -143 -4 -3 -18 -25 -30 -49 -17 -31 -21 -46 -13
-54 8 -8 15 -5 26 9 26 33 88 148 88 161 0 7 4 13 8 13 5 0 12 15 17 33 7 27
13 32 40 34 34 1 40 -11 23 -45 -5 -9 -25 -51 -46 -92 -35 -69 -109 -189 -145
-234 -22 -28 -151 -157 -186 -186 -142 -119 -384 -236 -549 -265 -11 -2 -40
-7 -65 -12 -57 -10 -350 -11 -410 0 -85 15 -196 46 -270 77 -78 32 -161 71
-170 80 -3 3 -30 21 -60 40 -30 19 -57 37 -60 40 -3 3 -29 25 -58 49 -131 108
-240 247 -322 409 -65 129 -68 142 -30 142 25 0 32 -8 61 -67z m2907 61 c-4
-3 -177 -54 -198 -57 -8 -2 -19 -5 -25 -8 -5 -4 -23 -10 -40 -14 -16 -4 -37
-9 -45 -11 -8 -2 -26 -6 -39 -10 -22 -7 -23 -5 -17 32 3 21 5 46 6 55 0 15 21
17 180 17 100 0 180 -2 178 -4z"/>
<path d="M2153 2802 c-13 -2 -23 -7 -23 -10 0 -4 78 -7 173 -7 94 0 180 -1
189 -3 13 -3 17 -14 16 -47 0 -24 -6 -45 -12 -47 -6 -2 -48 -4 -93 -3 l-81 1
-4 -28 c-3 -16 -1 -31 3 -34 4 -2 4 -18 -1 -34 -5 -17 -6 -30 -2 -30 4 0 6
-24 4 -52 -2 -29 -3 -68 -3 -86 l1 -33 -47 3 -48 3 -2 140 c0 77 -1 142 -2
145 -1 3 -36 5 -78 5 -107 -1 -109 0 -108 43 1 53 10 63 51 56 22 -3 34 -1 34
6 0 7 -17 10 -47 8 l-48 -3 -2 -59 c-2 -54 0 -62 27 -88 27 -25 37 -28 95 -28
l65 0 0 -124 0 -125 33 -25 c26 -20 42 -24 87 -23 l55 2 2 130 c1 72 2 138 2
148 1 15 12 17 94 17 l94 0 -1 62 c0 51 -5 66 -26 89 -21 24 -32 28 -73 26
-26 -1 -47 1 -47 4 0 3 -15 4 -32 2 -48 -4 -96 -4 -163 -1 -33 2 -70 2 -82 0z"/>
<path d="M2643 2798 c-4 -7 -8 -105 -8 -217 l0 -203 32 -29 c28 -24 41 -28 87
-28 60 1 63 4 61 66 -1 28 3 44 12 48 11 4 8 13 -11 38 -14 19 -26 37 -26 41
0 4 -9 16 -20 28 l-20 22 -1 -35 c0 -19 0 -58 1 -88 1 -36 -2 -51 -9 -46 -6 3
-11 2 -11 -3 0 -6 -14 -7 -34 -2 -19 4 -38 5 -41 1 -4 -3 -5 90 -3 207 2 116
2 212 1 212 -1 0 -5 -6 -10 -12z"/>
<path d="M3110 2802 c-30 -3 -41 -12 -80 -68 -54 -77 -76 -111 -91 -141 -7
-13 -18 -23 -24 -23 -7 0 -37 37 -66 82 -73 112 -109 148 -148 148 -17 0 -31
-4 -31 -9 0 -6 10 -8 21 -6 26 5 45 -16 136 -149 66 -97 93 -123 93 -93 0 9 3
17 8 19 11 5 52 66 52 78 0 5 5 10 10 10 6 0 10 7 10 15 0 9 7 18 15 21 8 4
15 11 15 16 0 6 14 28 31 49 22 28 36 38 52 35 12 -3 28 -5 35 -5 9 -1 12 -47
12 -197 l0 -195 -47 3 -48 3 -1 83 c-1 46 -4 85 -6 87 -2 2 -30 -36 -63 -86
-53 -80 -62 -89 -90 -89 -19 0 -35 7 -43 20 -7 11 -18 20 -25 19 -9 0 -9 -2 1
-6 6 -2 12 -12 12 -20 0 -20 57 -72 87 -79 37 -10 67 3 86 35 l17 29 33 -33
c31 -31 38 -33 93 -31 l59 1 0 210 c0 202 -1 211 -22 232 -30 30 -53 39 -93
35z"/>
<path d="M2068 2743 c-15 -18 4 -23 102 -26 l85 -2 0 -142 c-1 -105 3 -144 12
-147 7 -3 14 -2 16 2 2 4 4 69 5 145 0 76 2 141 5 143 3 3 43 5 91 6 91 1 107
7 79 29 -14 12 -16 12 -8 0 6 -10 4 -12 -6 -6 -23 15 -369 12 -381 -2z"/>
<path d="M2691 2747 c-5 -7 -9 -48 -8 -91 2 -42 -1 -80 -5 -82 -5 -3 -5 -10
-2 -16 4 -6 7 -38 8 -72 1 -47 4 -61 16 -61 12 0 15 14 15 65 0 36 4 70 8 77
4 6 3 15 -3 18 -8 5 -8 11 0 20 7 8 7 15 1 19 -11 7 -11 48 0 44 10 -4 99
-139 99 -149 0 -5 3 -9 8 -9 4 0 20 -20 35 -45 16 -25 32 -45 36 -45 16 0 40
30 106 132 39 58 75 109 80 111 7 3 10 -38 10 -117 0 -107 2 -121 17 -124 13
-3 16 1 11 14 -5 13 -3 15 7 9 10 -6 11 -4 4 6 -11 17 -12 78 -2 101 5 9 5 19
1 21 -5 3 -7 43 -6 90 2 105 -10 114 -58 43 -19 -28 -36 -53 -39 -56 -3 -3
-32 -44 -64 -92 -33 -49 -61 -88 -63 -88 -1 0 -26 35 -54 78 -29 42 -56 79
-61 80 -4 2 -6 8 -2 13 3 5 1 9 -4 9 -5 0 -17 16 -28 35 -10 19 -22 35 -27 35
-4 0 -6 3 -4 8 3 4 -1 12 -8 19 -10 10 -15 9 -24 0z"/>
</g>
</svg>
